# xmcd CD database file
#
# Track frame offsets:
#	150
#	11815
#	26530
#	43100
#	61899
#	72371
#	90010
#	108270
#	123321
#	144831
#
# Disc length: 2189 seconds
#
# Revision: 0
# Processed by: cddbd v1.5.1PL2 Copyright (c) Steve Scherf et al.
# Submitted via: CDex 1.51
#
DISCID=78088b0a
DTITLE=The Black League - A Place Called Bad
DYEAR=2005
DGENRE=Rock and Roll
TTITLE0=Same Ol Fuckery
TTITLE1=Ball n' Chain Woman
TTITLE2=Bury Yer Brother
TTITLE3=Runnin' Lo' On Fumes
TTITLE4=Marked Man
TTITLE5=Altamont Man
TTITLE6=Bastard's Degree
TTITLE7=Another Place Called Bad
TTITLE8=Heroes and Outlaws
TTITLE9=Watch Dog
EXTD=YEAR: 2005
EXTT0=
EXTT1=
EXTT2=
EXTT3=
EXTT4=
EXTT5=
EXTT6=
EXTT7=
EXTT8=
EXTT9=
PLAYORDER=
